<?xml version="1.0" encoding="UTF-8" standalone="no"?>
<svg
   version="1.2"
   width="140.22mm"
   height="62.66mm"
   viewBox="0 0 14022 6266"
   preserveAspectRatio="xMidYMid"
   fill-rule="evenodd"
   stroke-width="28.222"
   stroke-linejoin="round"
   xml:space="preserve"
   id="svg3747"
   sodipodi:docname="2.svg"
   inkscape:version="1.2.2 (732a01da63, 2022-12-09, custom)"
   xmlns:inkscape="http://www.inkscape.org/namespaces/inkscape"
   xmlns:sodipodi="http://sodipodi.sourceforge.net/DTD/sodipodi-0.dtd"
   xmlns="http://www.w3.org/2000/svg"
   xmlns:svg="http://www.w3.org/2000/svg"
   xmlns:ooo="http://xml.openoffice.org/svg/export"><sodipodi:namedview
   id="namedview3749"
   pagecolor="#ffffff"
   bordercolor="#000000"
   borderopacity="0.25"
   inkscape:showpageshadow="2"
   inkscape:pageopacity="0.0"
   inkscape:pagecheckerboard="0"
   inkscape:deskcolor="#d1d1d1"
   inkscape:document-units="mm"
   showgrid="false"
   inkscape:zoom="2.3661924"
   inkscape:cx="264.98268"
   inkscape:cy="118.33357"
   inkscape:window-width="1920"
   inkscape:window-height="1031"
   inkscape:window-x="0"
   inkscape:window-y="25"
   inkscape:window-maximized="1"
   inkscape:current-layer="svg3747" />
 <defs
   class="ClipPathGroup"
   id="defs3675">
  <clipPath
   id="presentation_clip_path"
   clipPathUnits="userSpaceOnUse">
   <rect
   x="0"
   y="0"
   width="14022"
   height="6266"
   id="rect3669" />
  </clipPath>
  <clipPath
   id="presentation_clip_path_shrink"
   clipPathUnits="userSpaceOnUse">
   <rect
   x="14"
   y="6"
   width="13994"
   height="6254"
   id="rect3672" />
  </clipPath>
 </defs>
 <defs
   class="TextShapeIndex"
   id="defs3679">
  <g
   ooo:slide="id1"
   ooo:id-list="id3 id4 id5"
   id="g3677" />
 </defs>
 <defs
   class="EmbeddedBulletChars"
   id="defs3711">
  <g
   id="bullet-char-template-57356"
   transform="scale(0.00048828125,-0.00048828125)">
   <path
   d="M 580,1141 L 1163,571 580,0 -4,571 580,1141 Z"
   id="path3681" />
  </g>
  <g
   id="bullet-char-template-57354"
   transform="scale(0.00048828125,-0.00048828125)">
   <path
   d="M 8,1128 L 1137,1128 1137,0 8,0 8,1128 Z"
   id="path3684" />
  </g>
  <g
   id="bullet-char-template-10146"
   transform="scale(0.00048828125,-0.00048828125)">
   <path
   d="M 174,0 L 602,739 174,1481 1456,739 174,0 Z M 1358,739 L 309,1346 659,739 1358,739 Z"
   id="path3687" />
  </g>
  <g
   id="bullet-char-template-10132"
   transform="scale(0.00048828125,-0.00048828125)">
   <path
   d="M 2015,739 L 1276,0 717,0 1260,543 174,543 174,936 1260,936 717,1481 1274,1481 2015,739 Z"
   id="path3690" />
  </g>
  <g
   id="bullet-char-template-10007"
   transform="scale(0.00048828125,-0.00048828125)">
   <path
   d="M 0,-2 C -7,14 -16,27 -25,37 L 356,567 C 262,823 215,952 215,954 215,979 228,992 255,992 264,992 276,990 289,987 310,991 331,999 354,1012 L 381,999 492,748 772,1049 836,1024 860,1049 C 881,1039 901,1025 922,1006 886,937 835,863 770,784 769,783 710,716 594,584 L 774,223 C 774,196 753,168 711,139 L 727,119 C 717,90 699,76 672,76 641,76 570,178 457,381 L 164,-76 C 142,-110 111,-127 72,-127 30,-127 9,-110 8,-76 1,-67 -2,-52 -2,-32 -2,-23 -1,-13 0,-2 Z"
   id="path3693" />
  </g>
  <g
   id="bullet-char-template-10004"
   transform="scale(0.00048828125,-0.00048828125)">
   <path
   d="M 285,-33 C 182,-33 111,30 74,156 52,228 41,333 41,471 41,549 55,616 82,672 116,743 169,778 240,778 293,778 328,747 346,684 L 369,508 C 377,444 397,411 428,410 L 1163,1116 C 1174,1127 1196,1133 1229,1133 1271,1133 1292,1118 1292,1087 L 1292,965 C 1292,929 1282,901 1262,881 L 442,47 C 390,-6 338,-33 285,-33 Z"
   id="path3696" />
  </g>
  <g
   id="bullet-char-template-9679"
   transform="scale(0.00048828125,-0.00048828125)">
   <path
   d="M 813,0 C 632,0 489,54 383,161 276,268 223,411 223,592 223,773 276,916 383,1023 489,1130 632,1184 813,1184 992,1184 1136,1130 1245,1023 1353,916 1407,772 1407,592 1407,412 1353,268 1245,161 1136,54 992,0 813,0 Z"
   id="path3699" />
  </g>
  <g
   id="bullet-char-template-8226"
   transform="scale(0.00048828125,-0.00048828125)">
   <path
   d="M 346,457 C 273,457 209,483 155,535 101,586 74,649 74,723 74,796 101,859 155,911 209,963 273,989 346,989 419,989 480,963 531,910 582,859 608,796 608,723 608,648 583,586 532,535 482,483 420,457 346,457 Z"
   id="path3702" />
  </g>
  <g
   id="bullet-char-template-8211"
   transform="scale(0.00048828125,-0.00048828125)">
   <path
   d="M -4,459 L 1135,459 1135,606 -4,606 -4,459 Z"
   id="path3705" />
  </g>
  <g
   id="bullet-char-template-61548"
   transform="scale(0.00048828125,-0.00048828125)">
   <path
   d="M 173,740 C 173,903 231,1043 346,1159 462,1274 601,1332 765,1332 928,1332 1067,1274 1183,1159 1299,1043 1357,903 1357,740 1357,577 1299,437 1183,322 1067,206 928,148 765,148 601,148 462,206 346,322 231,437 173,577 173,740 Z"
   id="path3708" />
  </g>
 </defs>
 
 
<g
   inkscape:groupmode="layer"
   id="layer9"
   inkscape:label="Layer 1"><path
     fill="#2a6099"
     stroke="none"
     d="M 669,3825 C 353,3298 151,2550 161,1943 c 2,-177 -8,-348 -21,-382 -2,-5 -3,-11 -3,-18 v -2 c 2,-125 277,-544 449,-673 373,-281 1243,-239 1925,93 625,304 992,721 1182,1339 94,308 87,875 -16,1238 -167,583 -513,1072 -886,1252 -231,110 -555,142 -810,78 C 1498,4747 970,4327 669,3825 Z"
     id="path3720"
     style="display:inline" /><path
     fill="#2a6099"
     stroke="none"
     d="M 7841,6139 C 7585,6088 7212,5932 6961,5771 6349,5380 5863,4680 5668,3912 c -78,-310 -80,-889 -5,-1173 149,-560 490,-896 1061,-1044 284,-73 1028,-72 1418,1 762,145 1398,431 1779,800 226,218 289,313 461,699 54,121 83,346 85,587 v 66 c -2,206 -23,418 -65,581 -124,490 -332,862 -654,1174 -410,399 -796,561 -1360,568 h -74 c -181,-2 -394,-17 -473,-32 z"
     id="path3727"
     style="display:inline" /><path
     fill="#ffbf00"
     stroke="none"
     d="M 7899,6222 C 7365,6117 6937,5883 6521,5467 6101,5046 5820,4548 5660,3942 5599,3707 5579,2912 5626,2594 l 24,-157 -142,19 c -109,14 -241,-16 -577,-132 -460,-159 -911,-228 -911,-140 0,25 -24,63 -54,85 -42,31 -57,139 -68,498 -20,636 -55,796 -272,1217 -350,680 -735,961 -1317,964 -310,1 -469,-41 -751,-199 -254,-143 -202,-168 71,-35 596,290 1106,213 1509,-227 451,-493 689,-1366 550,-2019 C 3515,1649 2964,1088 2062,811 1751,715 1247,680 980,735 651,804 485,955 242,1408 c -46,87 -89,165 -93,173 -5,8 -41,-14 -80,-49 -142,-129 -50,-368 144,-373 58,-1 119,-49 192,-149 244,-336 534,-432 1216,-403 451,19 496,15 829,-81 194,-56 567,-159 829,-229 262,-70 524,-153 582,-186 115,-63 109,-62 759,-98 135,-8 229,-13 300,-13 h 19 c 141,1 192,22 316,81 107,51 332,200 500,331 167,131 440,341 606,467 167,126 303,241 304,256 2,59 -77,18 -254,-130 C 6178,809 5419,276 5255,191 5075,98 4725,84 4373,156 c -165,33 -320,76 -344,96 -24,19 -81,26 -127,14 -101,-25 -324,31 -1057,264 l -557,178 363,181 c 284,142 417,235 613,430 138,136 295,331 350,433 l 100,185 250,2 c 377,3 528,20 541,59 6,19 47,28 91,20 44,-9 243,50 443,131 299,121 387,142 502,123 92,-16 158,-9 193,20 44,37 63,30 112,-40 139,-200 339,-383 529,-482 279,-148 435,-179 1041,-209 467,-22 909,46 1436,221 705,235 1165,565 1419,1019 l 119,212 h 368 369 l 353,-208 c 1025,-604 1852,-1158 1852,-1240 0,-49 493,-333 579,-333 76,0 106,72 109,307 v 72 c 0,49 -2,104 -4,166 -14,388 -45,535 -97,451 -11,-18 -24,-226 -28,-462 -4,-235 -14,-428 -23,-428 -9,0 -102,89 -206,197 -105,109 -210,190 -234,181 -25,-10 -266,146 -536,345 -270,200 -772,532 -1116,738 -496,297 -632,394 -660,473 -37,108 -152,145 -456,145 l -150,1 -1,379 c -1,445 -58,746 -211,1114 -409,982 -1377,1511 -2399,1311 z m 937,-107 c 319,-82 547,-207 802,-441 361,-330 591,-743 716,-1286 74,-322 54,-958 -36,-1164 -168,-381 -229,-475 -453,-696 -379,-372 -1073,-680 -1819,-807 -316,-53 -962,-52 -1222,3 -758,160 -1162,728 -1154,1623 5,589 169,1096 524,1626 393,585 916,964 1582,1144 242,65 802,64 1060,-2 z"
     id="path3734"
     style="display:inline" /></g></svg>
